<mxfile host="Electron" modified="2024-10-19T03:55:24.118Z" agent="Mozilla/5.0 (Windows NT 10.0; Win64; x64) AppleWebKit/537.36 (KHTML, like Gecko) draw.io/24.1.0 Chrome/120.0.6099.109 Electron/28.1.0 Safari/537.36" etag="tft0tJLoYe6kZdmHhwsL" version="24.1.0" type="device">
  <diagram id="R2lEEEUBdFMjLlhIrx00" name="Page-1">
    <mxGraphModel dx="2700" dy="1699" grid="1" gridSize="10" guides="1" tooltips="1" connect="1" arrows="1" fold="1" page="1" pageScale="1" pageWidth="850" pageHeight="1100" math="0" shadow="0" extFonts="Permanent Marker^https://fonts.googleapis.com/css?family=Permanent+Marker">
      <root>
        <mxCell id="0" />
        <mxCell id="1" parent="0" />
        <mxCell id="ruydA4AvgmRHpF4jMMEr-1" value="Users" style="swimlane;fontStyle=1;align=center;verticalAlign=top;childLayout=stackLayout;horizontal=1;startSize=30;horizontalStack=0;resizeParent=1;resizeLast=0;collapsible=1;marginBottom=0;rounded=0;shadow=0;strokeWidth=1;fillColor=#dae8fc;strokeColor=#6c8ebf;" parent="1" vertex="1">
          <mxGeometry x="-615" y="80" width="190" height="330" as="geometry">
            <mxRectangle x="160" y="80" width="160" height="40" as="alternateBounds" />
          </mxGeometry>
        </mxCell>
        <mxCell id="ruydA4AvgmRHpF4jMMEr-2" value="🔑 _id                             ObjectId  " style="text;align=left;verticalAlign=top;spacingLeft=4;spacingRight=4;overflow=hidden;rotatable=0;points=[[0,0.5],[1,0.5]];portConstraint=eastwest;" parent="ruydA4AvgmRHpF4jMMEr-1" vertex="1">
          <mxGeometry y="30" width="190" height="30" as="geometry" />
        </mxCell>
        <mxCell id="ruydA4AvgmRHpF4jMMEr-3" value="     email                    String U NN" style="text;align=left;verticalAlign=top;spacingLeft=4;spacingRight=4;overflow=hidden;rotatable=0;points=[[0,0.5],[1,0.5]];portConstraint=eastwest;" parent="ruydA4AvgmRHpF4jMMEr-1" vertex="1">
          <mxGeometry y="60" width="190" height="30" as="geometry" />
        </mxCell>
        <mxCell id="ruydA4AvgmRHpF4jMMEr-5" value="     firstName                 String NN" style="text;align=left;verticalAlign=top;spacingLeft=4;spacingRight=4;overflow=hidden;rotatable=0;points=[[0,0.5],[1,0.5]];portConstraint=eastwest;" parent="ruydA4AvgmRHpF4jMMEr-1" vertex="1">
          <mxGeometry y="90" width="190" height="30" as="geometry" />
        </mxCell>
        <mxCell id="ruydA4AvgmRHpF4jMMEr-6" value="     lastName                 String NN" style="text;align=left;verticalAlign=top;spacingLeft=4;spacingRight=4;overflow=hidden;rotatable=0;points=[[0,0.5],[1,0.5]];portConstraint=eastwest;" parent="ruydA4AvgmRHpF4jMMEr-1" vertex="1">
          <mxGeometry y="120" width="190" height="30" as="geometry" />
        </mxCell>
        <mxCell id="ruydA4AvgmRHpF4jMMEr-7" value="     avatar                            String " style="text;align=left;verticalAlign=top;spacingLeft=4;spacingRight=4;overflow=hidden;rotatable=0;points=[[0,0.5],[1,0.5]];portConstraint=eastwest;" parent="ruydA4AvgmRHpF4jMMEr-1" vertex="1">
          <mxGeometry y="150" width="190" height="30" as="geometry" />
        </mxCell>
        <mxCell id="ruydA4AvgmRHpF4jMMEr-8" value="     about                             String " style="text;align=left;verticalAlign=top;spacingLeft=4;spacingRight=4;overflow=hidden;rotatable=0;points=[[0,0.5],[1,0.5]];portConstraint=eastwest;" parent="ruydA4AvgmRHpF4jMMEr-1" vertex="1">
          <mxGeometry y="180" width="190" height="30" as="geometry" />
        </mxCell>
        <mxCell id="ruydA4AvgmRHpF4jMMEr-14" value="     socketId                         String " style="text;align=left;verticalAlign=top;spacingLeft=4;spacingRight=4;overflow=hidden;rotatable=0;points=[[0,0.5],[1,0.5]];portConstraint=eastwest;" parent="ruydA4AvgmRHpF4jMMEr-1" vertex="1">
          <mxGeometry y="210" width="190" height="30" as="geometry" />
        </mxCell>
        <mxCell id="ruydA4AvgmRHpF4jMMEr-9" value="     verified                 Boolean NN" style="text;align=left;verticalAlign=top;spacingLeft=4;spacingRight=4;overflow=hidden;rotatable=0;points=[[0,0.5],[1,0.5]];portConstraint=eastwest;" parent="ruydA4AvgmRHpF4jMMEr-1" vertex="1">
          <mxGeometry y="240" width="190" height="30" as="geometry" />
        </mxCell>
        <mxCell id="ruydA4AvgmRHpF4jMMEr-10" value="     online                   Boolean NN" style="text;align=left;verticalAlign=top;spacingLeft=4;spacingRight=4;overflow=hidden;rotatable=0;points=[[0,0.5],[1,0.5]];portConstraint=eastwest;" parent="ruydA4AvgmRHpF4jMMEr-1" vertex="1">
          <mxGeometry y="270" width="190" height="30" as="geometry" />
        </mxCell>
        <mxCell id="ruydA4AvgmRHpF4jMMEr-11" value="     deleted                 Boolean NN" style="text;align=left;verticalAlign=top;spacingLeft=4;spacingRight=4;overflow=hidden;rotatable=0;points=[[0,0.5],[1,0.5]];portConstraint=eastwest;" parent="ruydA4AvgmRHpF4jMMEr-1" vertex="1">
          <mxGeometry y="300" width="190" height="30" as="geometry" />
        </mxCell>
        <mxCell id="ruydA4AvgmRHpF4jMMEr-15" value="RegisterOtp" style="swimlane;fontStyle=1;align=center;verticalAlign=top;childLayout=stackLayout;horizontal=1;startSize=30;horizontalStack=0;resizeParent=1;resizeLast=0;collapsible=1;marginBottom=0;rounded=0;shadow=0;strokeWidth=1;movable=1;resizable=1;rotatable=1;deletable=1;editable=1;locked=0;connectable=1;fillColor=#dae8fc;strokeColor=#6c8ebf;" parent="1" vertex="1">
          <mxGeometry x="-360" y="-340" width="170" height="180" as="geometry">
            <mxRectangle x="560" y="160" width="160" height="40" as="alternateBounds" />
          </mxGeometry>
        </mxCell>
        <mxCell id="ruydA4AvgmRHpF4jMMEr-16" value="🔑 _id                       ObjectId              " style="text;align=left;verticalAlign=top;spacingLeft=4;spacingRight=4;overflow=hidden;rotatable=0;points=[[0,0.5],[1,0.5]];portConstraint=eastwest;" parent="ruydA4AvgmRHpF4jMMEr-15" vertex="1">
          <mxGeometry y="30" width="170" height="30" as="geometry" />
        </mxCell>
        <mxCell id="ruydA4AvgmRHpF4jMMEr-17" value="      email             String U NN" style="text;align=left;verticalAlign=top;spacingLeft=4;spacingRight=4;overflow=hidden;rotatable=0;points=[[0,0.5],[1,0.5]];portConstraint=eastwest;" parent="ruydA4AvgmRHpF4jMMEr-15" vertex="1">
          <mxGeometry y="60" width="170" height="30" as="geometry" />
        </mxCell>
        <mxCell id="ruydA4AvgmRHpF4jMMEr-18" value="      currentOtp              String" style="text;align=left;verticalAlign=top;spacingLeft=4;spacingRight=4;overflow=hidden;rotatable=0;points=[[0,0.5],[1,0.5]];portConstraint=eastwest;" parent="ruydA4AvgmRHpF4jMMEr-15" vertex="1">
          <mxGeometry y="90" width="170" height="30" as="geometry" />
        </mxCell>
        <mxCell id="ruydA4AvgmRHpF4jMMEr-20" value="      expiredAt                 Date" style="text;align=left;verticalAlign=top;spacingLeft=4;spacingRight=4;overflow=hidden;rotatable=0;points=[[0,0.5],[1,0.5]];portConstraint=eastwest;" parent="ruydA4AvgmRHpF4jMMEr-15" vertex="1">
          <mxGeometry y="120" width="170" height="30" as="geometry" />
        </mxCell>
        <mxCell id="ruydA4AvgmRHpF4jMMEr-21" value="      verified         Boolean NN" style="text;align=left;verticalAlign=top;spacingLeft=4;spacingRight=4;overflow=hidden;rotatable=0;points=[[0,0.5],[1,0.5]];portConstraint=eastwest;" parent="ruydA4AvgmRHpF4jMMEr-15" vertex="1">
          <mxGeometry y="150" width="170" height="30" as="geometry" />
        </mxCell>
        <mxCell id="ruydA4AvgmRHpF4jMMEr-22" value="KeyStore" style="swimlane;fontStyle=1;align=center;verticalAlign=top;childLayout=stackLayout;horizontal=1;startSize=30;horizontalStack=0;resizeParent=1;resizeLast=0;collapsible=1;marginBottom=0;rounded=0;shadow=0;strokeWidth=1;fillColor=#dae8fc;strokeColor=#6c8ebf;" parent="1" vertex="1">
          <mxGeometry x="-900" y="40" width="220" height="150" as="geometry">
            <mxRectangle x="360" y="160" width="160" height="40" as="alternateBounds" />
          </mxGeometry>
        </mxCell>
        <mxCell id="ruydA4AvgmRHpF4jMMEr-23" value="🔑 _id                                      ObjectId              " style="text;align=left;verticalAlign=top;spacingLeft=4;spacingRight=4;overflow=hidden;rotatable=0;points=[[0,0.5],[1,0.5]];portConstraint=eastwest;" parent="ruydA4AvgmRHpF4jMMEr-22" vertex="1">
          <mxGeometry y="30" width="220" height="30" as="geometry" />
        </mxCell>
        <mxCell id="ruydA4AvgmRHpF4jMMEr-24" value="🗝  user                           ObjectId U NN" style="text;align=left;verticalAlign=top;spacingLeft=4;spacingRight=4;overflow=hidden;rotatable=0;points=[[0,0.5],[1,0.5]];portConstraint=eastwest;fontStyle=0" parent="ruydA4AvgmRHpF4jMMEr-22" vertex="1">
          <mxGeometry y="60" width="220" height="30" as="geometry" />
        </mxCell>
        <mxCell id="ruydA4AvgmRHpF4jMMEr-25" value="     publicKey                          String NN" style="text;align=left;verticalAlign=top;spacingLeft=4;spacingRight=4;overflow=hidden;rotatable=0;points=[[0,0.5],[1,0.5]];portConstraint=eastwest;" parent="ruydA4AvgmRHpF4jMMEr-22" vertex="1">
          <mxGeometry y="90" width="220" height="30" as="geometry" />
        </mxCell>
        <mxCell id="ruydA4AvgmRHpF4jMMEr-26" value="     privateKey                         String NN" style="text;align=left;verticalAlign=top;spacingLeft=4;spacingRight=4;overflow=hidden;rotatable=0;points=[[0,0.5],[1,0.5]];portConstraint=eastwest;" parent="ruydA4AvgmRHpF4jMMEr-22" vertex="1">
          <mxGeometry y="120" width="220" height="30" as="geometry" />
        </mxCell>
        <mxCell id="ruydA4AvgmRHpF4jMMEr-34" value="Sessions" style="swimlane;fontStyle=1;align=center;verticalAlign=top;childLayout=stackLayout;horizontal=1;startSize=30;horizontalStack=0;resizeParent=1;resizeLast=0;collapsible=1;marginBottom=0;rounded=0;shadow=0;strokeWidth=1;fillColor=#dae8fc;strokeColor=#6c8ebf;" parent="1" vertex="1">
          <mxGeometry x="-850" y="-150" width="250" height="150" as="geometry">
            <mxRectangle x="360" y="160" width="160" height="40" as="alternateBounds" />
          </mxGeometry>
        </mxCell>
        <mxCell id="ruydA4AvgmRHpF4jMMEr-35" value="🔑 _id                                              ObjectId  " style="text;align=left;verticalAlign=top;spacingLeft=4;spacingRight=4;overflow=hidden;rotatable=0;points=[[0,0.5],[1,0.5]];portConstraint=eastwest;" parent="ruydA4AvgmRHpF4jMMEr-34" vertex="1">
          <mxGeometry y="30" width="250" height="30" as="geometry" />
        </mxCell>
        <mxCell id="ruydA4AvgmRHpF4jMMEr-36" value="🗝  user                                      ObjectId NN" style="text;align=left;verticalAlign=top;spacingLeft=4;spacingRight=4;overflow=hidden;rotatable=0;points=[[0,0.5],[1,0.5]];portConstraint=eastwest;" parent="ruydA4AvgmRHpF4jMMEr-34" vertex="1">
          <mxGeometry y="60" width="250" height="30" as="geometry" />
        </mxCell>
        <mxCell id="ruydA4AvgmRHpF4jMMEr-37" value="     refreshToken                                   String" style="text;align=left;verticalAlign=top;spacingLeft=4;spacingRight=4;overflow=hidden;rotatable=0;points=[[0,0.5],[1,0.5]];portConstraint=eastwest;" parent="ruydA4AvgmRHpF4jMMEr-34" vertex="1">
          <mxGeometry y="90" width="250" height="30" as="geometry" />
        </mxCell>
        <mxCell id="ruydA4AvgmRHpF4jMMEr-38" value="     available                                Boolean NN" style="text;align=left;verticalAlign=top;spacingLeft=4;spacingRight=4;overflow=hidden;rotatable=0;points=[[0,0.5],[1,0.5]];portConstraint=eastwest;" parent="ruydA4AvgmRHpF4jMMEr-34" vertex="1">
          <mxGeometry y="120" width="250" height="30" as="geometry" />
        </mxCell>
        <mxCell id="ruydA4AvgmRHpF4jMMEr-39" value="Friendships" style="swimlane;fontStyle=1;align=center;verticalAlign=top;childLayout=stackLayout;horizontal=1;startSize=30;horizontalStack=0;resizeParent=1;resizeLast=0;collapsible=1;marginBottom=0;rounded=0;shadow=0;strokeWidth=1;fillColor=#dae8fc;strokeColor=#6c8ebf;" parent="1" vertex="1">
          <mxGeometry x="-960" y="220" width="220" height="120" as="geometry">
            <mxRectangle x="360" y="160" width="160" height="40" as="alternateBounds" />
          </mxGeometry>
        </mxCell>
        <mxCell id="ruydA4AvgmRHpF4jMMEr-40" value="🔑 _id                                      ObjectId              " style="text;align=left;verticalAlign=top;spacingLeft=4;spacingRight=4;overflow=hidden;rotatable=0;points=[[0,0.5],[1,0.5]];portConstraint=eastwest;" parent="ruydA4AvgmRHpF4jMMEr-39" vertex="1">
          <mxGeometry y="30" width="220" height="30" as="geometry" />
        </mxCell>
        <mxCell id="ruydA4AvgmRHpF4jMMEr-41" value="🗝  user                              ObjectId NN" style="text;align=left;verticalAlign=top;spacingLeft=4;spacingRight=4;overflow=hidden;rotatable=0;points=[[0,0.5],[1,0.5]];portConstraint=eastwest;fontStyle=0" parent="ruydA4AvgmRHpF4jMMEr-39" vertex="1">
          <mxGeometry y="60" width="220" height="30" as="geometry" />
        </mxCell>
        <mxCell id="ruydA4AvgmRHpF4jMMEr-42" value="🗝  friends              Array&lt;ObjectId&gt; NN" style="text;align=left;verticalAlign=top;spacingLeft=4;spacingRight=4;overflow=hidden;rotatable=0;points=[[0,0.5],[1,0.5]];portConstraint=eastwest;" parent="ruydA4AvgmRHpF4jMMEr-39" vertex="1">
          <mxGeometry y="90" width="220" height="30" as="geometry" />
        </mxCell>
        <mxCell id="ruydA4AvgmRHpF4jMMEr-63" value="FriendshipRequests" style="swimlane;fontStyle=1;align=center;verticalAlign=top;childLayout=stackLayout;horizontal=1;startSize=30;horizontalStack=0;resizeParent=1;resizeLast=0;collapsible=1;marginBottom=0;rounded=0;shadow=0;strokeWidth=1;fillColor=#dae8fc;strokeColor=#6c8ebf;" parent="1" vertex="1">
          <mxGeometry x="-1020" y="360" width="280" height="210" as="geometry">
            <mxRectangle x="360" y="160" width="160" height="40" as="alternateBounds" />
          </mxGeometry>
        </mxCell>
        <mxCell id="ruydA4AvgmRHpF4jMMEr-64" value="🔑 _id                                                        ObjectId  " style="text;align=left;verticalAlign=top;spacingLeft=4;spacingRight=4;overflow=hidden;rotatable=0;points=[[0,0.5],[1,0.5]];portConstraint=eastwest;" parent="ruydA4AvgmRHpF4jMMEr-63" vertex="1">
          <mxGeometry y="30" width="280" height="30" as="geometry" />
        </mxCell>
        <mxCell id="ruydA4AvgmRHpF4jMMEr-65" value="🗝  sender                                            ObjectId NN" style="text;align=left;verticalAlign=top;spacingLeft=4;spacingRight=4;overflow=hidden;rotatable=0;points=[[0,0.5],[1,0.5]];portConstraint=eastwest;" parent="ruydA4AvgmRHpF4jMMEr-63" vertex="1">
          <mxGeometry y="60" width="280" height="30" as="geometry" />
        </mxCell>
        <mxCell id="ruydA4AvgmRHpF4jMMEr-69" value="🗝  user                                                ObjectId NN" style="text;align=left;verticalAlign=top;spacingLeft=4;spacingRight=4;overflow=hidden;rotatable=0;points=[[0,0.5],[1,0.5]];portConstraint=eastwest;" parent="ruydA4AvgmRHpF4jMMEr-63" vertex="1">
          <mxGeometry y="90" width="280" height="30" as="geometry" />
        </mxCell>
        <mxCell id="ruydA4AvgmRHpF4jMMEr-66" value="     deletedBySender                             Boolean NN" style="text;align=left;verticalAlign=top;spacingLeft=4;spacingRight=4;overflow=hidden;rotatable=0;points=[[0,0.5],[1,0.5]];portConstraint=eastwest;" parent="ruydA4AvgmRHpF4jMMEr-63" vertex="1">
          <mxGeometry y="120" width="280" height="30" as="geometry" />
        </mxCell>
        <mxCell id="ruydA4AvgmRHpF4jMMEr-67" value="     deletedByRecipient                         Boolean NN" style="text;align=left;verticalAlign=top;spacingLeft=4;spacingRight=4;overflow=hidden;rotatable=0;points=[[0,0.5],[1,0.5]];portConstraint=eastwest;" parent="ruydA4AvgmRHpF4jMMEr-63" vertex="1">
          <mxGeometry y="150" width="280" height="30" as="geometry" />
        </mxCell>
        <mxCell id="ruydA4AvgmRHpF4jMMEr-70" value="     createdAt                                              Date NN" style="text;align=left;verticalAlign=top;spacingLeft=4;spacingRight=4;overflow=hidden;rotatable=0;points=[[0,0.5],[1,0.5]];portConstraint=eastwest;" parent="ruydA4AvgmRHpF4jMMEr-63" vertex="1">
          <mxGeometry y="180" width="280" height="30" as="geometry" />
        </mxCell>
        <mxCell id="ruydA4AvgmRHpF4jMMEr-146" value="" style="edgeStyle=entityRelationEdgeStyle;fontSize=12;html=1;endArrow=ERmandOne;startArrow=ERmandOne;rounded=0;entryX=0;entryY=0.5;entryDx=0;entryDy=0;exitX=1;exitY=0.5;exitDx=0;exitDy=0;" parent="1" source="ruydA4AvgmRHpF4jMMEr-23" target="ruydA4AvgmRHpF4jMMEr-2" edge="1">
          <mxGeometry width="100" height="100" relative="1" as="geometry">
            <mxPoint x="-780" y="230" as="sourcePoint" />
            <mxPoint x="-680" y="130" as="targetPoint" />
          </mxGeometry>
        </mxCell>
        <mxCell id="ruydA4AvgmRHpF4jMMEr-147" value="" style="fontSize=12;html=1;endArrow=ERzeroToMany;startArrow=ERmandOne;rounded=0;exitX=0.393;exitY=0.001;exitDx=0;exitDy=0;edgeStyle=orthogonalEdgeStyle;exitPerimeter=0;" parent="1" source="ruydA4AvgmRHpF4jMMEr-1" edge="1">
          <mxGeometry width="100" height="100" relative="1" as="geometry">
            <mxPoint x="-540" y="65" as="sourcePoint" />
            <mxPoint x="-600" y="-80" as="targetPoint" />
            <Array as="points">
              <mxPoint x="-540" y="-80" />
            </Array>
          </mxGeometry>
        </mxCell>
        <mxCell id="ruydA4AvgmRHpF4jMMEr-149" value="" style="fontSize=12;html=1;endArrow=ERmandOne;startArrow=ERmandOne;rounded=0;exitX=0.5;exitY=0;exitDx=0;exitDy=0;entryX=0.5;entryY=1.025;entryDx=0;entryDy=0;entryPerimeter=0;" parent="1" source="ruydA4AvgmRHpF4jMMEr-1" target="ruydA4AvgmRHpF4jMMEr-163" edge="1">
          <mxGeometry width="100" height="100" relative="1" as="geometry">
            <mxPoint x="-390" y="50.00000000000023" as="sourcePoint" />
            <mxPoint x="-520" y="-160" as="targetPoint" />
          </mxGeometry>
        </mxCell>
        <mxCell id="ruydA4AvgmRHpF4jMMEr-150" value="" style="edgeStyle=entityRelationEdgeStyle;fontSize=12;html=1;endArrow=ERmandOne;startArrow=ERmandOne;rounded=0;exitX=0;exitY=0.5;exitDx=0;exitDy=0;entryX=1;entryY=0.5;entryDx=0;entryDy=0;" parent="1" source="ruydA4AvgmRHpF4jMMEr-8" target="ruydA4AvgmRHpF4jMMEr-65" edge="1">
          <mxGeometry width="100" height="100" relative="1" as="geometry">
            <mxPoint x="-430" y="349.9999999999998" as="sourcePoint" />
            <mxPoint x="-325" y="349.9999999999998" as="targetPoint" />
          </mxGeometry>
        </mxCell>
        <mxCell id="ruydA4AvgmRHpF4jMMEr-154" value="" style="edgeStyle=entityRelationEdgeStyle;fontSize=12;html=1;endArrow=ERoneToMany;startArrow=ERzeroToMany;rounded=0;exitX=1;exitY=0.5;exitDx=0;exitDy=0;entryX=0;entryY=0.5;entryDx=0;entryDy=0;" parent="1" source="ruydA4AvgmRHpF4jMMEr-42" target="ruydA4AvgmRHpF4jMMEr-6" edge="1">
          <mxGeometry width="100" height="100" relative="1" as="geometry">
            <mxPoint x="-370" y="340" as="sourcePoint" />
            <mxPoint x="-270" y="240" as="targetPoint" />
          </mxGeometry>
        </mxCell>
        <mxCell id="ruydA4AvgmRHpF4jMMEr-155" value="" style="edgeStyle=entityRelationEdgeStyle;fontSize=12;html=1;endArrow=ERmandOne;startArrow=ERmandOne;rounded=0;exitX=0;exitY=0.5;exitDx=0;exitDy=0;entryX=1;entryY=0.5;entryDx=0;entryDy=0;" parent="1" source="ruydA4AvgmRHpF4jMMEr-5" target="ruydA4AvgmRHpF4jMMEr-41" edge="1">
          <mxGeometry width="100" height="100" relative="1" as="geometry">
            <mxPoint x="-415" y="165" as="sourcePoint" />
            <mxPoint x="-310" y="165" as="targetPoint" />
          </mxGeometry>
        </mxCell>
        <mxCell id="ruydA4AvgmRHpF4jMMEr-156" value="" style="edgeStyle=entityRelationEdgeStyle;fontSize=12;html=1;endArrow=ERmandOne;startArrow=ERmandOne;rounded=0;exitX=0;exitY=0.5;exitDx=0;exitDy=0;entryX=1;entryY=0.5;entryDx=0;entryDy=0;" parent="1" source="ruydA4AvgmRHpF4jMMEr-14" target="ruydA4AvgmRHpF4jMMEr-69" edge="1">
          <mxGeometry width="100" height="100" relative="1" as="geometry">
            <mxPoint x="-410" y="350" as="sourcePoint" />
            <mxPoint x="-305" y="360" as="targetPoint" />
            <Array as="points">
              <mxPoint x="-430" y="330" />
            </Array>
          </mxGeometry>
        </mxCell>
        <mxCell id="ruydA4AvgmRHpF4jMMEr-157" value="Credentials" style="swimlane;fontStyle=1;align=center;verticalAlign=top;childLayout=stackLayout;horizontal=1;startSize=30;horizontalStack=0;resizeParent=1;resizeLast=0;collapsible=1;marginBottom=0;rounded=0;shadow=0;strokeWidth=1;fillColor=#dae8fc;strokeColor=#6c8ebf;" parent="1" vertex="1">
          <mxGeometry x="-630" y="-375" width="220" height="210" as="geometry">
            <mxRectangle x="360" y="160" width="160" height="40" as="alternateBounds" />
          </mxGeometry>
        </mxCell>
        <mxCell id="ruydA4AvgmRHpF4jMMEr-158" value="🔑 _id                                      ObjectId              " style="text;align=left;verticalAlign=top;spacingLeft=4;spacingRight=4;overflow=hidden;rotatable=0;points=[[0,0.5],[1,0.5]];portConstraint=eastwest;" parent="ruydA4AvgmRHpF4jMMEr-157" vertex="1">
          <mxGeometry y="30" width="220" height="30" as="geometry" />
        </mxCell>
        <mxCell id="ruydA4AvgmRHpF4jMMEr-159" value="🗝  user                          ObjectId U NN" style="text;align=left;verticalAlign=top;spacingLeft=4;spacingRight=4;overflow=hidden;rotatable=0;points=[[0,0.5],[1,0.5]];portConstraint=eastwest;" parent="ruydA4AvgmRHpF4jMMEr-157" vertex="1">
          <mxGeometry y="60" width="220" height="30" as="geometry" />
        </mxCell>
        <mxCell id="ruydA4AvgmRHpF4jMMEr-160" value="     credLogin                      String U NN    " style="text;align=left;verticalAlign=top;spacingLeft=4;spacingRight=4;overflow=hidden;rotatable=0;points=[[0,0.5],[1,0.5]];portConstraint=eastwest;" parent="ruydA4AvgmRHpF4jMMEr-157" vertex="1">
          <mxGeometry y="90" width="220" height="30" as="geometry" />
        </mxCell>
        <mxCell id="ruydA4AvgmRHpF4jMMEr-161" value="     credPassword                  String NN" style="text;align=left;verticalAlign=top;spacingLeft=4;spacingRight=4;overflow=hidden;rotatable=0;points=[[0,0.5],[1,0.5]];portConstraint=eastwest;" parent="ruydA4AvgmRHpF4jMMEr-157" vertex="1">
          <mxGeometry y="120" width="220" height="30" as="geometry" />
        </mxCell>
        <mxCell id="ruydA4AvgmRHpF4jMMEr-162" value="     passwordResetCode              String" style="text;align=left;verticalAlign=top;spacingLeft=4;spacingRight=4;overflow=hidden;rotatable=0;points=[[0,0.5],[1,0.5]];portConstraint=eastwest;" parent="ruydA4AvgmRHpF4jMMEr-157" vertex="1">
          <mxGeometry y="150" width="220" height="30" as="geometry" />
        </mxCell>
        <mxCell id="ruydA4AvgmRHpF4jMMEr-163" value="     passwordResetExpires            Date" style="text;align=left;verticalAlign=top;spacingLeft=4;spacingRight=4;overflow=hidden;rotatable=0;points=[[0,0.5],[1,0.5]];portConstraint=eastwest;" parent="ruydA4AvgmRHpF4jMMEr-157" vertex="1">
          <mxGeometry y="180" width="220" height="30" as="geometry" />
        </mxCell>
        <mxCell id="ruydA4AvgmRHpF4jMMEr-166" value="" style="edgeStyle=entityRelationEdgeStyle;fontSize=12;html=1;endArrow=ERoneToMany;startArrow=ERzeroToMany;rounded=0;exitX=0;exitY=0.5;exitDx=0;exitDy=0;entryX=1;entryY=0.5;entryDx=0;entryDy=0;" parent="1" source="8Hq-Cm8u6fjzNsuWyJjv-3" target="ruydA4AvgmRHpF4jMMEr-2" edge="1">
          <mxGeometry width="100" height="100" relative="1" as="geometry">
            <mxPoint x="-360" y="3.5" as="sourcePoint" />
            <mxPoint x="-210" y="280" as="targetPoint" />
          </mxGeometry>
        </mxCell>
        <mxCell id="ruydA4AvgmRHpF4jMMEr-168" value="" style="edgeStyle=entityRelationEdgeStyle;fontSize=12;html=1;endArrow=ERzeroToMany;startArrow=ERmandOne;rounded=0;entryX=0;entryY=0.5;entryDx=0;entryDy=0;exitX=1;exitY=0.5;exitDx=0;exitDy=0;" parent="1" source="ruydA4AvgmRHpF4jMMEr-5" target="8Hq-Cm8u6fjzNsuWyJjv-5" edge="1">
          <mxGeometry width="100" height="100" relative="1" as="geometry">
            <mxPoint x="-310" y="380" as="sourcePoint" />
            <mxPoint x="-360" y="61.50000000000023" as="targetPoint" />
          </mxGeometry>
        </mxCell>
        <mxCell id="ruydA4AvgmRHpF4jMMEr-171" value="" style="edgeStyle=entityRelationEdgeStyle;fontSize=12;html=1;endArrow=ERzeroToMany;startArrow=ERmandOne;rounded=0;entryX=0;entryY=0.5;entryDx=0;entryDy=0;exitX=1;exitY=0.5;exitDx=0;exitDy=0;" parent="1" source="ruydA4AvgmRHpF4jMMEr-3" target="8Hq-Cm8u6fjzNsuWyJjv-21" edge="1">
          <mxGeometry width="100" height="100" relative="1" as="geometry">
            <mxPoint x="-410" y="510" as="sourcePoint" />
            <mxPoint x="-360" y="155" as="targetPoint" />
          </mxGeometry>
        </mxCell>
        <mxCell id="ruydA4AvgmRHpF4jMMEr-123" value="ChatOneToOnes" style="swimlane;fontStyle=1;align=center;verticalAlign=top;childLayout=stackLayout;horizontal=1;startSize=30;horizontalStack=0;resizeParent=1;resizeLast=0;collapsible=1;marginBottom=0;rounded=0;shadow=0;strokeWidth=1;fillColor=#dae8fc;strokeColor=#6c8ebf;" parent="1" vertex="1">
          <mxGeometry x="-710" y="520" width="280" height="180" as="geometry">
            <mxRectangle x="360" y="160" width="160" height="40" as="alternateBounds" />
          </mxGeometry>
        </mxCell>
        <mxCell id="ruydA4AvgmRHpF4jMMEr-124" value="🔑 _id                                                        ObjectId  " style="text;align=left;verticalAlign=top;spacingLeft=4;spacingRight=4;overflow=hidden;rotatable=0;points=[[0,0.5],[1,0.5]];portConstraint=eastwest;" parent="ruydA4AvgmRHpF4jMMEr-123" vertex="1">
          <mxGeometry y="30" width="280" height="30" as="geometry" />
        </mxCell>
        <mxCell id="ruydA4AvgmRHpF4jMMEr-125" value="🗝  firstUser                                          ObjectId NN" style="text;align=left;verticalAlign=top;spacingLeft=4;spacingRight=4;overflow=hidden;rotatable=0;points=[[0,0.5],[1,0.5]];portConstraint=eastwest;" parent="ruydA4AvgmRHpF4jMMEr-123" vertex="1">
          <mxGeometry y="60" width="280" height="30" as="geometry" />
        </mxCell>
        <mxCell id="ruydA4AvgmRHpF4jMMEr-126" value="🗝  secondUser                                    ObjectId NN" style="text;align=left;verticalAlign=top;spacingLeft=4;spacingRight=4;overflow=hidden;rotatable=0;points=[[0,0.5],[1,0.5]];portConstraint=eastwest;" parent="ruydA4AvgmRHpF4jMMEr-123" vertex="1">
          <mxGeometry y="90" width="280" height="30" as="geometry" />
        </mxCell>
        <mxCell id="ruydA4AvgmRHpF4jMMEr-127" value="     unReadFirstUser                             Number NN" style="text;align=left;verticalAlign=top;spacingLeft=4;spacingRight=4;overflow=hidden;rotatable=0;points=[[0,0.5],[1,0.5]];portConstraint=eastwest;" parent="ruydA4AvgmRHpF4jMMEr-123" vertex="1">
          <mxGeometry y="120" width="280" height="30" as="geometry" />
        </mxCell>
        <mxCell id="ruydA4AvgmRHpF4jMMEr-128" value="     unReadSecondUser                        Number NN" style="text;align=left;verticalAlign=top;spacingLeft=4;spacingRight=4;overflow=hidden;rotatable=0;points=[[0,0.5],[1,0.5]];portConstraint=eastwest;" parent="ruydA4AvgmRHpF4jMMEr-123" vertex="1">
          <mxGeometry y="150" width="280" height="30" as="geometry" />
        </mxCell>
        <mxCell id="ruydA4AvgmRHpF4jMMEr-177" value="" style="edgeStyle=orthogonalEdgeStyle;fontSize=12;html=1;endArrow=ERzeroToMany;startArrow=ERmandOne;rounded=0;entryX=1;entryY=0.5;entryDx=0;entryDy=0;exitX=1;exitY=0.5;exitDx=0;exitDy=0;" parent="1" source="ruydA4AvgmRHpF4jMMEr-11" target="ruydA4AvgmRHpF4jMMEr-125" edge="1">
          <mxGeometry width="100" height="100" relative="1" as="geometry">
            <mxPoint x="-270" y="450" as="sourcePoint" />
            <mxPoint x="-425" y="760" as="targetPoint" />
          </mxGeometry>
        </mxCell>
        <mxCell id="ruydA4AvgmRHpF4jMMEr-179" value="" style="edgeStyle=orthogonalEdgeStyle;fontSize=12;html=1;endArrow=ERzeroToMany;startArrow=ERmandOne;rounded=0;entryX=1;entryY=0.5;entryDx=0;entryDy=0;exitX=1;exitY=0.5;exitDx=0;exitDy=0;" parent="1" source="ruydA4AvgmRHpF4jMMEr-11" target="ruydA4AvgmRHpF4jMMEr-126" edge="1">
          <mxGeometry width="100" height="100" relative="1" as="geometry">
            <mxPoint x="-315" y="500" as="sourcePoint" />
            <mxPoint x="-330" y="700" as="targetPoint" />
          </mxGeometry>
        </mxCell>
        <mxCell id="ruydA4AvgmRHpF4jMMEr-181" value="" style="edgeStyle=entityRelationEdgeStyle;fontSize=12;html=1;endArrow=ERzeroToMany;startArrow=ERmandOne;rounded=0;entryX=0;entryY=0.5;entryDx=0;entryDy=0;exitX=1;exitY=0.5;exitDx=0;exitDy=0;" parent="1" source="ruydA4AvgmRHpF4jMMEr-124" target="8Hq-Cm8u6fjzNsuWyJjv-12" edge="1">
          <mxGeometry width="100" height="100" relative="1" as="geometry">
            <mxPoint x="-390" y="790" as="sourcePoint" />
            <mxPoint x="-380" y="425" as="targetPoint" />
          </mxGeometry>
        </mxCell>
        <mxCell id="ruydA4AvgmRHpF4jMMEr-183" value="" style="edgeStyle=entityRelationEdgeStyle;fontSize=12;html=1;endArrow=ERzeroToMany;startArrow=ERmandOne;rounded=0;exitX=1;exitY=0.5;exitDx=0;exitDy=0;entryX=0;entryY=0.5;entryDx=0;entryDy=0;" parent="1" source="ruydA4AvgmRHpF4jMMEr-9" target="8Hq-Cm8u6fjzNsuWyJjv-9" edge="1">
          <mxGeometry width="100" height="100" relative="1" as="geometry">
            <mxPoint x="-510" y="400" as="sourcePoint" />
            <mxPoint x="-380" y="335" as="targetPoint" />
          </mxGeometry>
        </mxCell>
        <mxCell id="ruydA4AvgmRHpF4jMMEr-184" value="" style="edgeStyle=entityRelationEdgeStyle;fontSize=12;html=1;endArrow=ERzeroToMany;startArrow=ERmandOne;rounded=0;exitX=1;exitY=0.5;exitDx=0;exitDy=0;entryX=0;entryY=0.5;entryDx=0;entryDy=0;" parent="1" source="ruydA4AvgmRHpF4jMMEr-10" target="8Hq-Cm8u6fjzNsuWyJjv-10" edge="1">
          <mxGeometry width="100" height="100" relative="1" as="geometry">
            <mxPoint x="-410" y="310" as="sourcePoint" />
            <mxPoint x="-380" y="365" as="targetPoint" />
          </mxGeometry>
        </mxCell>
        <mxCell id="8Hq-Cm8u6fjzNsuWyJjv-7" value="Messages" style="swimlane;fontStyle=1;align=center;verticalAlign=top;childLayout=stackLayout;horizontal=1;startSize=30;horizontalStack=0;resizeParent=1;resizeLast=0;collapsible=1;marginBottom=0;rounded=0;shadow=0;strokeWidth=1;fillColor=#dae8fc;strokeColor=#6c8ebf;" vertex="1" parent="1">
          <mxGeometry x="-370" y="260" width="280" height="360" as="geometry">
            <mxRectangle x="360" y="160" width="160" height="40" as="alternateBounds" />
          </mxGeometry>
        </mxCell>
        <mxCell id="8Hq-Cm8u6fjzNsuWyJjv-8" value="🔑 _id                                                        ObjectId  " style="text;align=left;verticalAlign=top;spacingLeft=4;spacingRight=4;overflow=hidden;rotatable=0;points=[[0,0.5],[1,0.5]];portConstraint=eastwest;" vertex="1" parent="8Hq-Cm8u6fjzNsuWyJjv-7">
          <mxGeometry y="30" width="280" height="30" as="geometry" />
        </mxCell>
        <mxCell id="8Hq-Cm8u6fjzNsuWyJjv-9" value="🗝  sender                                            ObjectId NN" style="text;align=left;verticalAlign=top;spacingLeft=4;spacingRight=4;overflow=hidden;rotatable=0;points=[[0,0.5],[1,0.5]];portConstraint=eastwest;" vertex="1" parent="8Hq-Cm8u6fjzNsuWyJjv-7">
          <mxGeometry y="60" width="280" height="30" as="geometry" />
        </mxCell>
        <mxCell id="8Hq-Cm8u6fjzNsuWyJjv-10" value="🗝  recipient                                         ObjectId NN" style="text;align=left;verticalAlign=top;spacingLeft=4;spacingRight=4;overflow=hidden;rotatable=0;points=[[0,0.5],[1,0.5]];portConstraint=eastwest;" vertex="1" parent="8Hq-Cm8u6fjzNsuWyJjv-7">
          <mxGeometry y="90" width="280" height="30" as="geometry" />
        </mxCell>
        <mxCell id="8Hq-Cm8u6fjzNsuWyJjv-11" value="🗝  chatGroup                                            ObjectId" style="text;align=left;verticalAlign=top;spacingLeft=4;spacingRight=4;overflow=hidden;rotatable=0;points=[[0,0.5],[1,0.5]];portConstraint=eastwest;" vertex="1" parent="8Hq-Cm8u6fjzNsuWyJjv-7">
          <mxGeometry y="120" width="280" height="30" as="geometry" />
        </mxCell>
        <mxCell id="8Hq-Cm8u6fjzNsuWyJjv-12" value="🗝  chatOneToOne                                     ObjectId" style="text;align=left;verticalAlign=top;spacingLeft=4;spacingRight=4;overflow=hidden;rotatable=0;points=[[0,0.5],[1,0.5]];portConstraint=eastwest;" vertex="1" parent="8Hq-Cm8u6fjzNsuWyJjv-7">
          <mxGeometry y="150" width="280" height="30" as="geometry" />
        </mxCell>
        <mxCell id="8Hq-Cm8u6fjzNsuWyJjv-13" value="      type                                                    String NN" style="text;align=left;verticalAlign=top;spacingLeft=4;spacingRight=4;overflow=hidden;rotatable=0;points=[[0,0.5],[1,0.5]];portConstraint=eastwest;" vertex="1" parent="8Hq-Cm8u6fjzNsuWyJjv-7">
          <mxGeometry y="180" width="280" height="30" as="geometry" />
        </mxCell>
        <mxCell id="8Hq-Cm8u6fjzNsuWyJjv-14" value="      text                                                           String" style="text;align=left;verticalAlign=top;spacingLeft=4;spacingRight=4;overflow=hidden;rotatable=0;points=[[0,0.5],[1,0.5]];portConstraint=eastwest;" vertex="1" parent="8Hq-Cm8u6fjzNsuWyJjv-7">
          <mxGeometry y="210" width="280" height="30" as="geometry" />
        </mxCell>
        <mxCell id="8Hq-Cm8u6fjzNsuWyJjv-15" value="      imgUri                                                     String" style="text;align=left;verticalAlign=top;spacingLeft=4;spacingRight=4;overflow=hidden;rotatable=0;points=[[0,0.5],[1,0.5]];portConstraint=eastwest;" vertex="1" parent="8Hq-Cm8u6fjzNsuWyJjv-7">
          <mxGeometry y="240" width="280" height="30" as="geometry" />
        </mxCell>
        <mxCell id="8Hq-Cm8u6fjzNsuWyJjv-16" value="      fileUri                                                       String" style="text;align=left;verticalAlign=top;spacingLeft=4;spacingRight=4;overflow=hidden;rotatable=0;points=[[0,0.5],[1,0.5]];portConstraint=eastwest;" vertex="1" parent="8Hq-Cm8u6fjzNsuWyJjv-7">
          <mxGeometry y="270" width="280" height="30" as="geometry" />
        </mxCell>
        <mxCell id="8Hq-Cm8u6fjzNsuWyJjv-17" value="      link                                                          String" style="text;align=left;verticalAlign=top;spacingLeft=4;spacingRight=4;overflow=hidden;rotatable=0;points=[[0,0.5],[1,0.5]];portConstraint=eastwest;" vertex="1" parent="8Hq-Cm8u6fjzNsuWyJjv-7">
          <mxGeometry y="300" width="280" height="30" as="geometry" />
        </mxCell>
        <mxCell id="8Hq-Cm8u6fjzNsuWyJjv-18" value="🗝  replyMsg                                       ObjectId NN" style="text;align=left;verticalAlign=top;spacingLeft=4;spacingRight=4;overflow=hidden;rotatable=0;points=[[0,0.5],[1,0.5]];portConstraint=eastwest;" vertex="1" parent="8Hq-Cm8u6fjzNsuWyJjv-7">
          <mxGeometry y="330" width="280" height="30" as="geometry" />
        </mxCell>
        <mxCell id="8Hq-Cm8u6fjzNsuWyJjv-19" value="" style="edgeStyle=entityRelationEdgeStyle;fontSize=12;html=1;endArrow=ERzeroToMany;startArrow=ERmandOne;rounded=0;exitX=1;exitY=0.5;exitDx=0;exitDy=0;" edge="1" parent="8Hq-Cm8u6fjzNsuWyJjv-7" source="8Hq-Cm8u6fjzNsuWyJjv-17" target="8Hq-Cm8u6fjzNsuWyJjv-18">
          <mxGeometry width="100" height="100" relative="1" as="geometry">
            <mxPoint x="410" y="220" as="sourcePoint" />
            <mxPoint x="510" y="120" as="targetPoint" />
          </mxGeometry>
        </mxCell>
        <mxCell id="8Hq-Cm8u6fjzNsuWyJjv-23" value="" style="group" vertex="1" connectable="0" parent="1">
          <mxGeometry x="-340" y="-80" width="340" height="300" as="geometry" />
        </mxCell>
        <mxCell id="8Hq-Cm8u6fjzNsuWyJjv-1" value="ChatGroups" style="swimlane;fontStyle=3;align=center;verticalAlign=top;childLayout=stackLayout;horizontal=1;startSize=30;horizontalStack=0;resizeParent=1;resizeLast=0;collapsible=1;marginBottom=0;rounded=0;shadow=0;strokeWidth=1;fillColor=#dae8fc;strokeColor=#6c8ebf;" vertex="1" parent="8Hq-Cm8u6fjzNsuWyJjv-23">
          <mxGeometry width="340" height="300" as="geometry">
            <mxRectangle x="360" y="80" width="160" height="40" as="alternateBounds" />
          </mxGeometry>
        </mxCell>
        <mxCell id="8Hq-Cm8u6fjzNsuWyJjv-2" value="🔑 _id                                                                         ObjectId              " style="text;align=left;verticalAlign=top;spacingLeft=4;spacingRight=4;overflow=hidden;rotatable=0;points=[[0,0.5],[1,0.5]];portConstraint=eastwest;" vertex="1" parent="8Hq-Cm8u6fjzNsuWyJjv-1">
          <mxGeometry y="30" width="340" height="29" as="geometry" />
        </mxCell>
        <mxCell id="8Hq-Cm8u6fjzNsuWyJjv-3" value=" 🗝  participants                                        Array&lt;ObjectId&gt; NN" style="text;align=left;verticalAlign=top;spacingLeft=4;spacingRight=4;overflow=hidden;rotatable=0;points=[[0,0.5],[1,0.5]];portConstraint=eastwest;" vertex="1" parent="8Hq-Cm8u6fjzNsuWyJjv-1">
          <mxGeometry y="59" width="340" height="29" as="geometry" />
        </mxCell>
        <mxCell id="8Hq-Cm8u6fjzNsuWyJjv-4" value="       groupName                                                              String" style="text;align=left;verticalAlign=top;spacingLeft=4;spacingRight=4;overflow=hidden;rotatable=0;points=[[0,0.5],[1,0.5]];portConstraint=eastwest;" vertex="1" parent="8Hq-Cm8u6fjzNsuWyJjv-1">
          <mxGeometry y="88" width="340" height="29" as="geometry" />
        </mxCell>
        <mxCell id="8Hq-Cm8u6fjzNsuWyJjv-5" value=" 🗝  creator                                                            ObjectId NN" style="text;align=left;verticalAlign=top;spacingLeft=4;spacingRight=4;overflow=hidden;rotatable=0;points=[[0,0.5],[1,0.5]];portConstraint=eastwest;" vertex="1" parent="8Hq-Cm8u6fjzNsuWyJjv-1">
          <mxGeometry y="117" width="340" height="29" as="geometry" />
        </mxCell>
        <mxCell id="8Hq-Cm8u6fjzNsuWyJjv-6" value="       participantUnreads             Array&lt;ParticipantUnread&gt; NN" style="text;align=left;verticalAlign=top;spacingLeft=4;spacingRight=4;overflow=hidden;rotatable=0;points=[[0,0.5],[1,0.5]];portConstraint=eastwest;" vertex="1" parent="8Hq-Cm8u6fjzNsuWyJjv-1">
          <mxGeometry y="146" width="340" height="29" as="geometry" />
        </mxCell>
        <mxCell id="8Hq-Cm8u6fjzNsuWyJjv-20" value="ParticipantUnread" style="swimlane;fontStyle=1;align=center;verticalAlign=top;childLayout=stackLayout;horizontal=1;startSize=30;horizontalStack=0;resizeParent=1;resizeLast=0;collapsible=1;marginBottom=0;rounded=0;shadow=0;strokeWidth=1;direction=east;" vertex="1" parent="8Hq-Cm8u6fjzNsuWyJjv-23">
          <mxGeometry x="30" y="190" width="280" height="90" as="geometry">
            <mxRectangle x="360" y="80" width="160" height="40" as="alternateBounds" />
          </mxGeometry>
        </mxCell>
        <mxCell id="8Hq-Cm8u6fjzNsuWyJjv-21" value="🗝 participantId                                          ObjectId NN" style="text;align=left;verticalAlign=top;spacingLeft=4;spacingRight=4;overflow=hidden;rotatable=0;points=[[0,0.5],[1,0.5]];portConstraint=eastwest;" vertex="1" parent="8Hq-Cm8u6fjzNsuWyJjv-20">
          <mxGeometry y="30" width="280" height="30" as="geometry" />
        </mxCell>
        <mxCell id="8Hq-Cm8u6fjzNsuWyJjv-22" value="     unread                                                  Number NN" style="text;align=left;verticalAlign=top;spacingLeft=4;spacingRight=4;overflow=hidden;rotatable=0;points=[[0,0.5],[1,0.5]];portConstraint=eastwest;" vertex="1" parent="8Hq-Cm8u6fjzNsuWyJjv-20">
          <mxGeometry y="60" width="280" height="30" as="geometry" />
        </mxCell>
      </root>
    </mxGraphModel>
  </diagram>
</mxfile>
